<svg xmlns="http://www.w3.org/2000/svg" fill="none" viewBox="0 0 179 165">
  <path fill="#F1F2F2" d="M112.52 134.962c18.894 19.252 69.663-8.923 55.08-49.246-14.583-40.322-28.966-12.512-62.339-50.306-18.034-20.423-37.76-33.158-74.396 18.645-23.479 33.199-12.13 95.59 12.085 93.782 24.214-1.808 29.423-53.78 69.57-12.875Z"/>
  <path fill="#50336E" d="M44.883 74.393h-1.567l1.941-1.74-.374 1.74Z"/>
  <path fill="#D9A78B" d="M32.556 115.127h42.24V74.105l-15.639-21.28-14.872 20.253v10.898L32.557 95.705v19.422Z"/>
  <path fill="#B68B73" d="M74.796 109.536h-42.24v.655h42.24v-.655Z"/>
  <path fill="#B68B73" d="M88.385 74.105h-13.59v41.022h13.59V74.105Z"/>
  <path fill="#3864A7" d="M58.873 52.438h14.01l16.463 21.667h-14.55L58.873 52.438Z"/>
  <path fill="#073D8E" d="M77.72 74.105 61.246 52.44h-1.234l16.474 21.666h1.234ZM80.153 74.105 63.682 52.438h-1.237L78.92 74.104h1.234ZM82.586 74.105 66.115 52.438H64.88l16.472 21.666h1.234ZM85.02 74.105 68.547 52.438h-1.234l16.471 21.666h1.234ZM87.454 74.105 70.981 52.438h-1.234l16.471 21.666h1.236ZM89.345 74.105 72.883 52.438h-.703L88.65 74.104h.694Z"/>
  <path fill="#3864A7" d="M70.278 48h-2.356v6.058h2.356V48Z"/>
  <path fill="#073D8D" d="m67.922 54.058-1.102-1.62H65.71V48h2.21v6.058Z"/>
  <path fill="#3864A7" d="M43.983 74.393h-1.218l16.108-21.955.588.8-15.477 21.155Z"/>
  <path fill="#B68B73" d="M44.285 83.284 30 97.303l2.09-.003.466-.478v18.305h11.73V83.284Z"/>
  <path fill="#fff" d="M53.676 80.007H49.69v11.056h3.987V80.008ZM61.242 80.007h-3.985v11.056h3.985V80.008ZM68.81 80.007h-3.987v11.056h3.987V80.008ZM53.676 95.98H49.69v11.057h3.987V95.98ZM61.242 95.98h-3.985v11.057h3.985V95.98ZM68.81 95.98h-3.987v11.057h3.987V95.98ZM62.33 68.78a2.949 2.949 0 1 0-5.743-1.348 2.949 2.949 0 0 0 5.742 1.347Z"/>
  <path fill="#50336E" d="M84.176 49.132 81 52.308h5.348l-2.172-3.176Z"/>
  <path fill="#D9A78B" d="M84.176 49.132v64.932h27.472V60.301L92.493 40.898l-8.317 8.234Z"/>
  <path fill="#B68B73" d="M134.447 60.301h-22.799v53.763h22.799V60.301Z"/>
  <path fill="#FE5F5F" d="M92.493 40.898h21.771L134.447 60.3h-22.799L92.493 40.898Z"/>
  <path fill="#E41717" d="M115.525 42.11H93.689l.536.544h21.865l-.565-.544ZM119.098 45.545H97.082l.535.543h22.046l-.565-.543ZM122.671 48.981h-22.199l.536.543h22.228l-.565-.543ZM126.244 52.415h-22.382l.536.543h22.411l-.565-.543ZM129.819 55.849h-22.565l.536.543h22.594l-.565-.543ZM133.392 59.286h-22.747l.536.543h22.776l-.565-.543Z"/>
  <path fill="#FE5F5F" d="M104.052 36h-2.604v6.086h2.604V36Z"/>
  <path fill="#E41717" d="m101.448 42.086-1.217-1.183h-1.225V36h2.442v6.086Z"/>
  <path fill="#B68B73" d="M111.648 111.288H81.414v4.71h30.234v-4.71ZM111.648 116h24.62v-4.71h-24.62V116Z"/>
  <path fill="#fff" d="M94.697 55.506H90.66v-5.373a2.019 2.019 0 1 1 4.038 0v5.373ZM90.66 73.633h-3.65v-9.846a1.823 1.823 0 1 1 3.65 0v9.846ZM96.141 73.633h-3.648v-9.846a1.823 1.823 0 1 1 3.648 0v9.846ZM101.56 73.633h-3.648v-9.846a1.823 1.823 0 1 1 3.648 0v9.846ZM107.082 73.633h-3.649v-9.846a1.823 1.823 0 1 1 3.649 0v9.846ZM90.66 89.15h-3.65v-9.847a1.823 1.823 0 1 1 3.65 0v9.847ZM96.141 89.15h-3.648v-9.847a1.823 1.823 0 1 1 3.648 0v9.847ZM101.56 89.15h-3.648v-9.847a1.823 1.823 0 1 1 3.648 0v9.847ZM107.082 89.15h-3.649v-9.847c0-1.008.816-1.824 1.824-1.824 1.009 0 1.825.816 1.825 1.824v9.847ZM90.66 103.904h-3.65v-9.845a1.823 1.823 0 1 1 3.65 0v9.845ZM96.141 103.904h-3.648v-9.845a1.823 1.823 0 1 1 3.648 0v9.845ZM101.56 103.904h-3.648v-9.845a1.823 1.823 0 1 1 3.648 0v9.845ZM107.082 103.904h-3.649v-9.845c0-1.008.816-1.824 1.824-1.824 1.009 0 1.825.816 1.825 1.824v9.845Z"/>
  <path fill="#E41717" d="m81 52.308 11.493-11.41.529.535-10.928 10.875H81Z"/>
  <path fill="#fff" d="M118.504 66.346h-2.737v7.287h2.737v-7.287ZM122.471 66.346h-2.737v7.287h2.737v-7.287ZM126.439 66.346h-2.738v7.287h2.738v-7.287ZM130.406 66.346h-2.737v7.287h2.737v-7.287ZM118.504 77.481h-2.737v7.287h2.737v-7.287ZM122.471 77.481h-2.737v7.287h2.737v-7.287ZM126.439 77.481h-2.738v7.287h2.738v-7.287ZM130.406 77.481h-2.737v7.287h2.737v-7.287ZM118.504 88.592h-2.737v7.287h2.737v-7.287ZM122.471 88.592h-2.737v7.287h2.737v-7.287ZM126.439 88.592h-2.738v7.287h2.738v-7.287ZM130.406 88.592h-2.737v7.287h2.737v-7.287ZM118.504 98.73h-2.737v7.288h2.737v-7.287ZM122.471 98.73h-2.737v7.288h2.737v-7.287ZM126.439 98.73h-2.738v7.288h2.738v-7.287ZM130.406 98.73h-2.737v7.288h2.737v-7.287Z"/>
</svg>
