<svg xmlns="http://www.w3.org/2000/svg" fill="none" viewBox="0 0 205 190">
  <path fill="#F1F2F2" d="M71.074 42.042c-22.65-18.13-74.746 18.16-54.473 59.24 20.274 41.08 32.858 9.707 73.28 45.76 21.843 19.482 44.681 30.574 78.825-29.092 21.881-38.237 2.703-103.196-23.421-98.26-26.123 4.936-26.085 60.872-74.211 22.352Z"/>
  <g opacity=".61">
    <path fill="#fff" d="m126.507 108.388 3.888-1.017c.8-.21 1.621.274 1.831 1.074l.787 3.007c1.108.012 2.212.164 3.286.455l1.572-2.681a1.501 1.501 0 0 1 2.054-.536l3.467 2.031a1.5 1.5 0 0 1 .536 2.053l-1.57 2.681a13.237 13.237 0 0 1 2.005 2.644l3.006-.786a1.502 1.502 0 0 1 1.832 1.074l1.017 3.888a1.504 1.504 0 0 1-1.074 1.832l-3.007.786a13.1 13.1 0 0 1-.455 3.286l2.681 1.573a1.5 1.5 0 0 1 .536 2.053l-2.031 3.468a1.499 1.499 0 0 1-2.053.535l-2.681-1.569a13.27 13.27 0 0 1-2.644 2.004l.786 3.007c.21.8-.274 1.624-1.074 1.831l-3.888 1.017a1.503 1.503 0 0 1-1.832-1.074l-.786-3.007a13.054 13.054 0 0 1-3.286-.455l-1.57 2.681a1.498 1.498 0 0 1-2.053.536l-3.468-2.03a1.5 1.5 0 0 1-.535-2.054l1.572-2.681a13.147 13.147 0 0 1-2.004-2.644l-3.004.783a1.501 1.501 0 0 1-1.832-1.074l-1.017-3.888c-.21-.8.274-1.621 1.075-1.831l3.003-.784c.015-1.109.168-2.212.456-3.286l-2.682-1.572a1.5 1.5 0 0 1-.535-2.054l2.03-3.467a1.502 1.502 0 0 1 2.053-.536l2.682 1.57a13.208 13.208 0 0 1 2.644-2.005l-.787-3.007a1.497 1.497 0 0 1 1.069-1.831Zm10.114 4.323-.256-.075a12.478 12.478 0 0 0-3.614-.501l-.265.002-.919-3.519a.818.818 0 0 0-.999-.585l-3.888 1.017a.818.818 0 0 0-.585.999l.919 3.52-.234.127a12.551 12.551 0 0 0-2.908 2.203l-.188.19-3.139-1.838a.818.818 0 0 0-1.12.294l-2.031 3.468a.82.82 0 0 0 .294 1.12l3.139 1.84-.074.257a12.513 12.513 0 0 0-.502 3.614l.003.265-3.516.919a.818.818 0 0 0-.585.999l1.017 3.888c.115.438.561.7.999.585l3.517-.919.126.233a12.426 12.426 0 0 0 2.204 2.906l.19.187-1.841 3.14a.819.819 0 0 0 .294 1.12l3.468 2.03a.82.82 0 0 0 1.12-.293l1.837-3.14.257.075c1.178.343 2.393.513 3.614.501l.265-.003.919 3.52c.115.438.561.7.999.584l3.888-1.016a.819.819 0 0 0 .585-1l-.919-3.519.233-.127a12.457 12.457 0 0 0 2.906-2.203l.187-.19 3.14 1.838a.82.82 0 0 0 1.12-.294l2.03-3.468a.818.818 0 0 0-.293-1.12l-3.14-1.84.075-.257c.343-1.178.513-2.393.501-3.614l-.002-.265 3.519-.919a.818.818 0 0 0 .585-.999l-1.017-3.888a.818.818 0 0 0-.999-.585l-3.52.919-.129-.233a12.488 12.488 0 0 0-2.204-2.906l-.19-.187 1.838-3.14a.819.819 0 0 0-.294-1.12l-3.468-2.03a.819.819 0 0 0-1.12.293l-1.829 3.14Zm-6.169 2.836c5.066-1.322 10.265 1.723 11.587 6.789 1.322 5.065-1.723 10.264-6.789 11.586-5.065 1.322-10.264-1.722-11.589-6.788-1.319-5.066 1.725-10.265 6.791-11.587Zm4.629 17.715c4.703-1.227 7.528-6.051 6.301-10.754-1.227-4.703-6.051-7.528-10.754-6.301-4.703 1.227-7.528 6.051-6.301 10.754 1.226 4.703 6.05 7.528 10.754 6.301ZM51.345 79.052l3.888-1.017c.8-.21 1.621.274 1.832 1.075l.783 3.006c1.109.012 2.212.165 3.286.455l1.572-2.68a1.5 1.5 0 0 1 2.054-.537l3.467 2.03a1.5 1.5 0 0 1 .536 2.054l-1.57 2.681a13.241 13.241 0 0 1 2.005 2.644l3.007-.786c.8-.21 1.624.274 1.831 1.074l1.017 3.888c.21.801-.274 1.622-1.074 1.832l-3.007.786a13.084 13.084 0 0 1-.455 3.286l2.681 1.573a1.5 1.5 0 0 1 .536 2.053l-2.03 3.468a1.5 1.5 0 0 1-2.054.535l-2.681-1.569a13.265 13.265 0 0 1-2.644 2.004l.786 3.007a1.503 1.503 0 0 1-1.074 1.832l-3.888 1.016a1.502 1.502 0 0 1-1.832-1.074l-.786-3.007a13.057 13.057 0 0 1-3.286-.455l-1.57 2.682a1.5 1.5 0 0 1-2.053.535l-3.468-2.03a1.5 1.5 0 0 1-.535-2.054l1.572-2.681a13.164 13.164 0 0 1-2.004-2.644l-3.004.784c-.8.21-1.624-.274-1.832-1.075l-1.016-3.887c-.21-.801.273-1.622 1.074-1.832l3.004-.784c.014-1.108.167-2.211.455-3.286l-2.682-1.572a1.5 1.5 0 0 1-.535-2.053l2.03-3.468a1.503 1.503 0 0 1 2.054-.536l2.68 1.57a13.239 13.239 0 0 1 2.645-2.005l-.787-3.006a1.5 1.5 0 0 1 1.072-1.832Zm10.114 4.32-.256-.075a12.507 12.507 0 0 0-3.614-.501l-.265.003-.919-3.52a.818.818 0 0 0-1-.584l-3.887 1.017a.818.818 0 0 0-.585.999l.919 3.52-.234.126a12.579 12.579 0 0 0-2.908 2.203l-.188.19-3.139-1.837a.819.819 0 0 0-1.12.294l-2.03 3.467a.819.819 0 0 0 .293 1.12l3.14 1.84-.075.257a12.504 12.504 0 0 0-.502 3.614l.003.265-3.516.92a.818.818 0 0 0-.585.999l1.017 3.887c.115.438.561.7 1 .585l3.516-.919.126.234a12.464 12.464 0 0 0 2.204 2.906l.19.187-1.84 3.139a.818.818 0 0 0 .293 1.12l3.468 2.031a.82.82 0 0 0 1.12-.294l1.837-3.139.257.075c1.178.342 2.393.512 3.614.501l.265-.003.919 3.519c.115.438.561.7 1 .585l3.887-1.017a.817.817 0 0 0 .585-.999l-.919-3.52.233-.126a12.526 12.526 0 0 0 2.906-2.203l.188-.191 3.139 1.838a.819.819 0 0 0 1.12-.294l2.03-3.467a.82.82 0 0 0-.293-1.121l-3.14-1.84.075-.256c.343-1.178.513-2.394.502-3.615l-.003-.265 3.519-.918a.818.818 0 0 0 .585-1l-1.017-3.888a.818.818 0 0 0-1-.584l-3.519.918-.127-.233a12.502 12.502 0 0 0-2.203-2.906l-.19-.187 1.838-3.14a.819.819 0 0 0-.294-1.12l-3.468-2.03a.819.819 0 0 0-1.12.294l-1.832 3.139Zm-6.169 2.837c5.066-1.322 10.265 1.722 11.587 6.788 1.322 5.066-1.723 10.264-6.788 11.586-5.066 1.322-10.265-1.722-11.59-6.788-1.324-5.066 1.725-10.264 6.791-11.586Zm4.626 17.715c4.703-1.227 7.528-6.051 6.301-10.754-1.227-4.703-6.05-7.529-10.754-6.302-4.703 1.227-7.528 6.051-6.301 10.754 1.23 4.703 6.053 7.531 10.754 6.302ZM129.499 97.51l1.858.458c.003.723.115 1.431.323 2.105l-1.639.991a.656.656 0 0 0-.222.904l1.184 1.953a.656.656 0 0 0 .904.222l1.639-.991a7.4 7.4 0 0 0 1.713 1.261l-.457 1.858a.66.66 0 0 0 .483.798l2.218.544a.66.66 0 0 0 .798-.484l.458-1.858a7.235 7.235 0 0 0 2.105-.322l.991 1.639a.656.656 0 0 0 .904.221l1.953-1.18a.657.657 0 0 0 .221-.905l-.99-1.638a7.38 7.38 0 0 0 1.261-1.717l1.858.458a.66.66 0 0 0 .797-.484l.545-2.217a.66.66 0 0 0-.484-.798l-1.858-.458a7.271 7.271 0 0 0-.322-2.105l1.639-.991a.657.657 0 0 0 .221-.904l-1.183-1.953a.658.658 0 0 0-.905-.222l-1.638.99a7.411 7.411 0 0 0-1.714-1.26l.458-1.858a.66.66 0 0 0-.484-.798l-2.218-.544a.659.659 0 0 0-.797.484l-.458 1.857a7.26 7.26 0 0 0-2.106.323l-.99-1.639a.657.657 0 0 0-.905-.222l-1.952 1.181a.657.657 0 0 0-.222.904l.991 1.64a7.33 7.33 0 0 0-1.262 1.716l-1.857-.458a.66.66 0 0 0-.798.484l-.544 2.217a.659.659 0 0 0 .483.798Zm10.449-4.64a5.2 5.2 0 0 1-2.48 10.1 5.2 5.2 0 1 1 2.48-10.1Z" opacity=".61"/>
  </g>
  <path fill="#292930" d="m116.116 131.756-31.107 13.409a5.12 5.12 0 0 1-6.727-2.675L49.695 76.172a5.119 5.119 0 0 1 2.675-6.728l31.107-13.41a5.118 5.118 0 0 1 6.728 2.676l28.587 66.315a5.127 5.127 0 0 1-2.676 6.731Z"/>
  <path fill="#fff" d="m112.248 129.368-26.493 11.419a5.118 5.118 0 0 1-6.727-2.675L52.903 77.5a5.119 5.119 0 0 1 2.675-6.728l26.494-11.42a5.118 5.118 0 0 1 6.727 2.676l26.128 60.615a5.125 5.125 0 0 1-2.679 6.725Z"/>
  <path fill="#C0E4FF" d="m111.505 127.643-26.493 11.419c-2.595 1.121-5.558.038-6.615-2.413l-24.682-57.26c-1.057-2.451.19-5.348 2.785-6.466l26.493-11.419c2.595-1.12 5.559-.037 6.616 2.413l24.681 57.261c1.06 2.451-.19 5.348-2.785 6.465Z"/>
  <path fill="#292930" d="m78.656 65.141-15.728 6.78a1.984 1.984 0 0 1-2.606-1.037l-.896-1.961 19.365-8.467.902 2.079a1.984 1.984 0 0 1-1.037 2.606Z"/>
  <path fill="#fff" d="M64.556 69.81a1.03 1.03 0 0 1-.41-1.973 1.029 1.029 0 1 1 .41 1.973Zm-.003-1.768a.742.742 0 0 0-.677 1.034.742.742 0 0 0 .973.385.742.742 0 0 0 .386-.973.747.747 0 0 0-.682-.446ZM67.646 68.206a.804.804 0 0 1-.749-1.103.81.81 0 0 1 .43-.444l7.53-3.246a.81.81 0 0 1 1.06.42.809.809 0 0 1-.42 1.06l-7.531 3.246a.785.785 0 0 1-.32.067Zm7.528-4.57a.511.511 0 0 0-.204.042l-7.531 3.246a.518.518 0 0 0 .408.95l7.532-3.245a.518.518 0 0 0-.205-.994Z"/>
  <path fill="#fff" d="M90.317 65.56 61.745 98.01l3.433 7.97 27.774-34.307-2.635-6.114Z" opacity=".18"/>
  <path fill="#fff" d="m94.925 76.39-26.288 37.757 3.435 7.967 25.6-39.35-2.747-6.373Z" opacity=".1"/>
  <path fill="#3A93FB" d="M115.923 59.466c2.151-6.92-1.65-14.254-8.49-16.38-6.84-2.125-14.129 1.761-16.28 8.682-2.15 6.92 1.65 14.254 8.49 16.38 6.841 2.126 14.129-1.761 16.28-8.682Z"/>
  <path fill="#3865A7" d="M115.238 57.898c2.152-6.92-1.648-14.254-8.488-16.38-6.839-2.127-14.127 1.76-16.28 8.679-2.15 6.92 1.65 14.253 8.489 16.38 6.839 2.126 14.128-1.76 16.279-8.68Z"/>
  <path fill="#fff" d="M112.372 57.008c1.653-5.319-1.268-10.956-6.525-12.59-5.257-1.633-10.858 1.354-12.512 6.673-1.653 5.32 1.268 10.956 6.525 12.59 5.257 1.633 10.858-1.354 12.512-6.673Z" opacity=".93"/>
  <path fill="#9FBFFF" d="M103.07 53.354a.481.481 0 0 1-.317-.605l1.745-5.616a.482.482 0 0 1 .605-.317.48.48 0 0 1 .317.605l-1.745 5.616a.487.487 0 0 1-.605.317ZM102.831 54.212a.481.481 0 0 1 .605-.317l4.328 1.345a.48.48 0 0 1 .317.605.48.48 0 0 1-.605.317l-4.328-1.345a.483.483 0 0 1-.317-.605Z"/>
  <path fill="#1B1B25" d="M104.239 54.477a1.458 1.458 0 0 1-1.82.97 1.46 1.46 0 0 1-.951-1.831 1.457 1.457 0 0 1 1.82-.97 1.458 1.458 0 0 1 .951 1.83Z"/>
  <path fill="#101011" d="m120.779 121.725-24.417-8.468a4.316 4.316 0 0 1-2.664-5.495l20.316-58.587a4.316 4.316 0 0 1 5.495-2.664l24.416 8.467a4.315 4.315 0 0 1 2.664 5.495l-20.318 58.588a4.314 4.314 0 0 1-5.492 2.664Z"/>
  <path fill="#282830" d="m120.373 120.581-22.982-7.969c-2.12-.734-3.223-3.116-2.46-5.313L114.77 50.09c.763-2.2 3.101-3.386 5.221-2.652l22.982 7.969c2.12.734 3.223 3.116 2.46 5.314l-19.838 57.208c-.763 2.2-3.101 3.39-5.221 2.652Z"/>
  <path fill="#fff" d="m114.542 53.933-17.629 50.842 28.732 9.962 17.629-50.842-28.732-9.962Z"/>
  <path fill="#fff" d="M130.773 53.984a.518.518 0 0 1-.49-.691.516.516 0 0 1 .265-.297.513.513 0 0 1 .397-.023.506.506 0 0 1 .297.265.513.513 0 0 1 .023.398.525.525 0 0 1-.492.348Zm0-.751a.231.231 0 0 0-.075.45c.057.019.121.016.175-.013a.236.236 0 0 0 .119-.132.22.22 0 0 0-.012-.176.234.234 0 0 0-.132-.118.319.319 0 0 0-.075-.011ZM132.875 56.576a.34.34 0 0 1-.129-.023l-5.441-1.886a.395.395 0 0 1-.04-.726.386.386 0 0 1 .299-.017l5.441 1.886a.396.396 0 0 1 .242.504.395.395 0 0 1-.372.262Zm-.034-.294c.054.02.115-.011.135-.066a.095.095 0 0 0-.006-.08.1.1 0 0 0-.06-.055l-5.441-1.887a.097.097 0 0 0-.08.006.104.104 0 0 0-.055.06c-.02.055.012.116.066.136l5.441 1.886Z" opacity=".89"/>
  <g opacity=".41">
    <path fill="#9FBFFF" d="m115.843 55.932-16.482 47.534 25.694 8.909 16.482-47.534-25.694-8.909Z" opacity=".81"/>
  </g>
  <path fill="#fff" d="M112.804 115.743c-.129 0-.259-.023-.386-.066l-5.745-1.993a1.177 1.177 0 0 1-.726-1.498l.034-.101c.104-.296.317-.535.599-.674.283-.138.602-.155.899-.052l5.746 1.993c.613.214.938.885.725 1.498l-.034.101a1.183 1.183 0 0 1-1.112.792Zm-6.586-3.462a.89.89 0 0 0 .55 1.132l5.745 1.993a.89.89 0 0 0 1.132-.55l.035-.101a.891.891 0 0 0-.55-1.132l-5.746-1.993a.882.882 0 0 0-.68.041.886.886 0 0 0-.452.509l-.034.101Z"/>
  <path fill="#fff" d="m112.911 58.644 24.635 21.779-2.911 8.398-23.876-24.403 2.152-5.774ZM109.207 69.245l24.636 21.779-2.912 8.398-22.473-28.164.749-2.013Z" opacity=".18"/>
  <path fill="#AA0D0D" d="m69.642 57.754-7.483.702a2.916 2.916 0 0 1-3.162-2.63l-.642-6.825a2.919 2.919 0 0 1 2.618-3.173l7.482-.703a2.916 2.916 0 0 1 3.162 2.63l.642 6.825a2.919 2.919 0 0 1-2.617 3.174Z"/>
  <path fill="#FE5F5F" d="m69.768 56.715-6.903.648a2.688 2.688 0 0 1-2.917-2.417l-.59-6.275a2.688 2.688 0 0 1 2.416-2.918l6.903-.648a2.688 2.688 0 0 1 2.917 2.417l.59 6.275a2.687 2.687 0 0 1-2.416 2.918Z"/>
  <path fill="#fff" d="M63.467 54.67c-.026 0-.043 0-.052-.003l-.078-.032-.011-.083a2.807 2.807 0 0 1 1.16-2.607 2.122 2.122 0 0 1-.947-1.529 2.117 2.117 0 1 1 3.632 1.221 2.811 2.811 0 0 1 1.725 2.272l.008.084-.066.052c-.106.078-4.815.625-5.371.625Zm2.186-6.33a1.831 1.831 0 0 0-1.82 2.039 1.828 1.828 0 0 0 .999 1.425l.236.118-.227.136a2.516 2.516 0 0 0-1.236 2.327c.714-.055 4.289-.467 4.994-.576a2.523 2.523 0 0 0-1.734-1.985l-.253-.078.204-.17a1.82 1.82 0 0 0 .648-1.615 1.812 1.812 0 0 0-.68-1.224 1.813 1.813 0 0 0-1.131-.398ZM117.625 134.017l-16.482-5.193a.725.725 0 0 0-.908.472l-.558 1.772-.274.866-2.687 8.525-.233.74-.035.113a.724.724 0 0 0 .473.907l16.482 5.193a.724.724 0 0 0 .907-.473l.046-.141.21-.665 2.909-9.228.271-.864.351-1.117a.719.719 0 0 0-.472-.907Z"/>
  <path fill="#3865A7" d="m105.512 136.784 1.509 1.518c.089.089.219.13.343.104l9.512-2.195.718-.164a.503.503 0 0 1 .155-.006l.351-1.117a.724.724 0 0 0-.472-.907l-16.482-5.193a.724.724 0 0 0-.907.472l-.56 1.772.367.36 5.466 5.356ZM99.406 131.931l-2.687 8.528 8.049-3.266-5.362-5.262ZM114.567 146.133l2.908-9.227-7.658 1.765 4.75 7.462Z"/>
  <path fill="#3865A7" d="m113.918 146.622-4.939-7.758-1.44.331a1.187 1.187 0 0 1-1.094-.323l-1.063-1.068c-.026.017-.052.034-.08.046l-8.407 3.413a.41.41 0 0 1-.274.011.359.359 0 0 1-.135-.075l-.035.113a.724.724 0 0 0 .473.907l16.482 5.193a.724.724 0 0 0 .907-.473l.046-.141a.407.407 0 0 1-.441-.176Z"/>
  <path fill="#AA0D0D" d="m107.001 88.317-6.368 2.744a2.683 2.683 0 0 1-3.52-1.4l-2.493-5.788a2.683 2.683 0 0 1 1.4-3.52l6.367-2.744a2.683 2.683 0 0 1 3.519 1.4l2.494 5.788a2.687 2.687 0 0 1-1.399 3.52Z"/>
  <path fill="#FE5F5F" d="m106.724 87.591-6.368 2.745a2.683 2.683 0 0 1-3.519-1.4l-2.494-5.789a2.683 2.683 0 0 1 1.4-3.52l6.367-2.744a2.684 2.684 0 0 1 3.52 1.4l2.494 5.789a2.69 2.69 0 0 1-1.4 3.519Z"/>
  <path fill="#fff" d="M101.235 85.998a2.395 2.395 0 0 1-2.198-1.443 2.39 2.39 0 1 1 3.143 1.25c-.309.13-.631.193-.945.193Zm-.003-4.493a2.103 2.103 0 0 0-1.93 2.935 2.103 2.103 0 0 0 3.883-.057 2.092 2.092 0 0 0-.023-1.607 2.1 2.1 0 0 0-1.93-1.27Z"/>
  <path fill="#3A93FB" d="m144.161 87.847-9.89-.87a3.848 3.848 0 0 1-3.485-4.158l.789-8.991a3.848 3.848 0 0 1 4.159-3.485l9.89.87a3.847 3.847 0 0 1 3.485 4.158l-.789 8.992a3.848 3.848 0 0 1-4.159 3.484Z"/>
  <path fill="#3865A7" d="m145.348 86.84-9.89-.87a3.847 3.847 0 0 1-3.485-4.159l.789-8.991a3.847 3.847 0 0 1 4.159-3.485l9.89.87a3.847 3.847 0 0 1 3.484 4.158l-.789 8.992a3.85 3.85 0 0 1-4.158 3.484Z"/>
  <path fill="#fff" d="M140.918 82.741a1.967 1.967 0 0 1-1.952-1.768l-.018-.173 3.906.369-.049.167a1.975 1.975 0 0 1-1.887 1.405Zm-1.638-1.621a1.681 1.681 0 0 0 1.483 1.327 1.678 1.678 0 0 0 1.705-1.025l-3.188-.302Z"/>
  <path fill="#fff" d="M143.784 81.534c-.061 0-.118-.002-.179-.008l-5.463-.516a1.863 1.863 0 0 1-1.679-2.027 1.858 1.858 0 0 1 1.581-1.665l.167-1.774a3.186 3.186 0 1 1 6.345.596l-.167 1.774a1.855 1.855 0 0 1 1.241 1.93 1.842 1.842 0 0 1-.665 1.258 1.816 1.816 0 0 1-1.181.432Zm-2.402-8.588a2.902 2.902 0 0 0-2.883 2.627l-.19 2.013-.121.009c-.76.06-1.365.656-1.437 1.417a1.575 1.575 0 0 0 1.417 1.713l5.463.516a1.55 1.55 0 0 0 1.149-.355 1.569 1.569 0 0 0-.584-2.724l-.116-.032.191-2.013a2.905 2.905 0 0 0-2.889-3.17Z"/>
  <path fill="#AA0D0D" d="m86.443 116.832-35.331 15.511a3.187 3.187 0 0 1-4.2-1.636l-6.134-13.979a3.187 3.187 0 0 1 1.636-4.199l35.329-15.512a3.188 3.188 0 0 1 4.199 1.636l6.137 13.977a3.19 3.19 0 0 1-1.636 4.202Z"/>
  <path fill="#FE5F5F" d="m86.501 114.49-35.93 15.774a2.192 2.192 0 0 1-2.89-1.126L41.6 115.282a2.191 2.191 0 0 1 1.126-2.888L78.653 96.62a2.192 2.192 0 0 1 2.889 1.126l6.082 13.856a2.188 2.188 0 0 1-1.123 2.888Z"/>
  <path fill="#fff" d="m57.055 110.218-10.606 4.657 4.657 10.605 10.605-4.656-4.656-10.606ZM61.699 111.204a.29.29 0 0 1-.118-.553l15.822-6.946a.289.289 0 0 1 .38.147.29.29 0 0 1-.146.38l-15.823 6.946a.259.259 0 0 1-.115.026ZM65.226 119.236a.29.29 0 0 1-.265-.172.29.29 0 0 1 .147-.381l15.823-6.946a.29.29 0 0 1 .38.147.29.29 0 0 1-.147.38l-15.822 6.947a.282.282 0 0 1-.116.025ZM63.46 115.222a.29.29 0 0 1-.118-.553l8.353-3.667a.29.29 0 0 1 .38.147.29.29 0 0 1-.147.381l-8.352 3.666a.273.273 0 0 1-.115.026ZM73.743 110.706a.29.29 0 0 1-.119-.553l5.542-2.434a.29.29 0 0 1 .38.147.29.29 0 0 1-.147.38l-5.541 2.434a.235.235 0 0 1-.115.026Z"/>
  <path fill="#AA0D0D" d="M147.139 122.01c.124 2.998-3.185 9.53-4.835 12.211-.329.533-1.472 1.135-2.356.012-1.947-2.471-6.31-8.657-6.434-11.653a6.817 6.817 0 0 1 6.529-7.096 6.814 6.814 0 0 1 7.096 6.526Z"/>
  <path fill="#FE5F5F" d="M147.871 121.644c.124 2.998-3.92 9.896-5.567 12.577a.88.88 0 0 1-1.46.061c-1.867-2.535-6.472-9.069-6.599-12.067a6.817 6.817 0 0 1 6.529-7.097 6.817 6.817 0 0 1 7.097 6.526Z"/>
  <path fill="#fff" d="M145.095 121.644a4.048 4.048 0 0 1-3.871 4.211 4.048 4.048 0 0 1-4.211-3.871 4.048 4.048 0 0 1 3.871-4.211 4.042 4.042 0 0 1 4.211 3.871Z"/>
</svg>
