<svg xmlns="http://www.w3.org/2000/svg" fill="none" viewBox="0 0 179 178">
  <path fill="#F1F2F2" d="M150.814 95.458c27.668-5.931 25.357-61.301-20.425-69.29-45.782-7.989-26.106 17.483-78.612 26.088-28.372 4.65-50.192 14.476-18.335 69.964 20.417 35.56 85.795 57.082 95.85 36.412 10.056-20.669-37.267-50.572 21.522-63.174Z"/>
  <path fill="#454240" d="M58.044 46.107s2.775-.29 3.775 2.392c1 2.683 1.942 3.562 2.06 4.971.476 5.703 3.137 4.413 2.389 7.7-.749 3.287-1.266 3.784-1.266 3.784l-6.36-1.248-6.442.02s2.52-1.26 1.96-3.944c-.562-2.683-1.96-7.081-1.17-10.077.79-2.993 3.394-3.368 5.054-3.598Z"/>
  <path fill="#3865A7" d="M56.287 134.213s-1.993 2.742-1.71 3.183c.284.442 2.459.505 3.782 0 1.323-.504 1.356-3.772 1.955-5.175.25-.588-.287-2.322-1.04-2.448-.755-.126-1.64.27-1.64.27s.773 1.996-1.347 4.17Z"/>
  <path fill="#E7A585" d="M57.635 130.043s-.158 1.295-.41 2.208c-.252.916-1.608 2.998-1.543 3.251.063.254 1.764.481 2.458-.169.694-.651 1.23-2.535 1.293-3.676.063-1.142-.157-1.884-.157-1.884s-.98-.424-1.641.27Z"/>
  <path fill="#4F5587" d="M60.314 132.221v2.918h-.378v-2.256l.378-.662Z"/>
  <path fill="#3865A7" d="M61.505 134.213s-1.994 2.742-1.71 3.183c.283.442 2.458.505 3.781 0 1.324-.504 1.356-3.772 1.955-5.175.251-.588-.287-2.322-1.04-2.448-.755-.126-1.64.27-1.64.27s.773 1.996-1.346 4.17Z"/>
  <path fill="#E7A585" d="M62.852 130.043s-.158 1.295-.409 2.208c-.253.916-1.608 2.998-1.544 3.251.063.254 1.765.481 2.459-.169.694-.651 1.23-2.535 1.293-3.676.062-1.142-.158-1.884-.158-1.884s-.98-.424-1.64.27Z"/>
  <path fill="#4F5587" d="M65.531 132.221v2.918h-.378v-2.256l.378-.662Z"/>
  <path fill="#E7A585" d="M52.623 84.61s-1.508 8.318-1.916 10.4c-.407 2.081-1.549 12.16-1.67 13.874-.123 1.714 3.718 9.957 3.958 10.526 4.019 9.519 4.482 11.673 4.482 11.673s1.32.827 1.93-.16c.184-.301-2.474-11.216-2.912-14.244-.407-2.816-1.468-7.165-1.183-8.153.285-.989 2.895-14.608 3.383-15.18.489-.57 1.224.326 1.509 1.591.285 1.266.895 12.201 1.262 13.589s.081 6.081.285 8.447c.204 2.366 1.052 13.413 1.052 13.413s1.642.294 1.805.031c.163-.263 1.585-12.271 1.626-15.085.04-2.816.085-6.699.163-7.915.755-11.668 2.181-13.195-.313-21.59-6.098-20.55-13.461-1.217-13.461-1.217Z"/>
  <path fill="#FE5F5F" d="M52.623 84.61s-1.508 8.318-1.916 10.4c-.407 2.081-1.549 12.161-1.671 13.874-.122 1.714 3.587 9.957 3.668 10.569.082.611 3.136 9.372 3.136 9.372s3.086-.052 3.926-.852c.17-.162-2.834-8.267-3.271-11.296-.408-2.816-1.468-7.164-1.183-8.153.285-.988 2.895-14.607 3.383-15.18.489-.57 1.224.326 1.509 1.592.285 1.265.895 12.201 1.262 13.588.366 1.388.081 6.081.285 8.447.204 2.366-.226 10.776-.226 10.776s4.042.212 4.205-.051c.162-.263.465-9.549.505-12.366.041-2.816.085-6.699.163-7.915.755-11.667 2.182-13.194-.312-21.59-6.1-20.548-13.463-1.215-13.463-1.215Z"/>
  <path fill="#3865A7" d="M66.693 87.41c.236-.096-1.652-6.343-2.026-8.21-.337-1.683-1.488-3.225-.364-6.094.643-1.643.6-3.584.6-3.584s1.717 3.794 1.882 4.773c.163.98-5.937-.802-6.022-.668-.16.258-.339 1.911-.339 2.482 0 .472 8.857 2.566 9.905.71.297-.527-1.625-10.603-2.867-11.944-2.038-2.203-7.39-4.08-7.39-4.08s-1.469-.788-4.05.027c-2.581.815-6.195 3.319-6.822 3.971-.624.652-3.125 10.492-3.344 11.766-.205 1.2-.125 3.72 2.608 3.397l7.377-1.692-.458-2.25-5.53.438c-1.128.194-.586-.798-.442-1.35.14-.54 1.529-5.548 1.529-5.548-.08 1.388.965 5.942 1.508 7.52.543 1.578-.658 10.021-.74 10.945 0 .002 4.442 3.654 14.985-.61Z"/>
  <path fill="#E7A585" d="M61.273 61.258s-1.82 3.761-3.34 4.862c0 0-2.736-4.106-2.596-5.052-.001 0 3.03-1.347 5.935.19ZM61.339 73.935s-.844-.342-1.066-.647c-.224-.306-.97-.49-1.525-.325-.553.165-.248 2.545-.248 2.545l2.92.379-.081-1.952ZM56.053 75.752s.28-1.537.214-1.82c-.068-.284.5-.57.579.132.078.701.12 1.148.12 1.148l-.913.54Z"/>
  <path fill="#ECEBEB" d="m57.268 76.819 2.126-.087a.512.512 0 0 0 .49-.506l.058-4.66a.512.512 0 0 0-.53-.517l-2.544.083a.512.512 0 0 0-.494.552l.361 4.661a.514.514 0 0 0 .533.474Z"/>
  <path fill="#E7A585" d="M56.008 75.878s-.04-.436.799-.837c1.113-.532 2.597-1.072 2.85-.933.365.2.177.48-.526.71-.702.233-.935.306-.935.306s1.376-.131 1.685.034c.309.165.326.545.1.608-.225.063-.757.1-.757.1s.584.022.642.257c.042.173.064.422-.489.524 0 0 .375.417-.186.683-.562.267-1.578.51-2.089.595-1.062.175-3.46.044-3.46.044l.984-1.67s.549.043.925-.085c.508-.171.457-.336.457-.336Z"/>
  <path fill="#474D7C" d="m55.385 76.016.458 2.25-4.701 1.079-.182-2.98 4.425-.35ZM60.762 73.627s-.387.833-.34 2.482c0 0 2.917 1.067 5.18 1.313V74.56l-4.84-.933Z"/>
  <path fill="#20233A" d="m55.841 78.266-3.295 1.835c.022-.383.04-.75.048-1.09l3.247-.745ZM64.505 78.51c-2.644-1.05-3.703-1.999-3.993-2.3-.063-.065-.09-.101-.09-.101l3.755 1.096c.095.456.217.883.328 1.306Z"/>
  <path fill="#E7A585" d="M58.41 47.677s3.677.531 3.137 5.963c-.538 5.434-3.782 5.003-3.999 4.998-.217-.006-3.254.113-3.517-6.516 0 0-.124-4.902 4.38-4.445Z"/>
  <path fill="#E7A585" d="M60.042 57.674s-.227 2.827.316 3.673c.544.846-.465 1.995-2.543 1.603-2.079-.394-1.959-1.573-1.959-1.573s.582-1.744.413-3.14c-.17-1.395 3.773-.563 3.773-.563Z"/>
  <path fill="#454240" d="M57.99 49.647s1.716 1.807 2.515 2.723c.798.916.89 2.684.89 2.684s1.343-1.645.782-3.557c-.562-1.914-1.892-5.638-5.258-4.493-3.366 1.145-3.49 6.18-3.097 8.675 0-.002 1.51-5.512 4.167-6.032Z"/>
  <path fill="#A4775F" d="M56.54 58.393s1.566.74 3.092-.353c0 0-.424.874-1.546 1-1.123.122-1.546-.647-1.546-.647Z"/>
  <path fill="#454240" d="M56.006 59.378s-5.058 4.505-3.745 7.316c1.12 2.398 5.094.927 4.437-1.587-.655-2.512-.692-5.729-.692-5.729Z"/>
  <path fill="#48484D" d="M57.384 72.032a.315.315 0 1 1-.632 0 .316.316 0 0 1 .632 0Z"/>
  <path fill="#353A3D" d="M79.8 133.766s-1.045 1.566-2.511 1.904c-1.466.339-2.91.877-2.922 1.803-.011.925 4.239 1.479 5.917.545 2.504-1.393 2.758-.973 3.035-1.67.278-.696-.334-2.56-.316-2.78.024-.275-3.203.198-3.203.198Z"/>
  <path fill="#82807F" d="M79.963 132.993s-.19.756-.163.773c.029.016 3.303.406 3.205-.2a22.964 22.964 0 0 0-.195-1.026l-2.847.453Z"/>
  <path fill="#353A3D" d="M90.822 133.663s-.745 1.498-2.02 2.007c-1.36.546-2.453 1.172-2.427 2.074.025.902 3.329 1.818 5.731.085 1.519-1.094 2-1.099 2.243-1.788.244-.69-.422-2.48-.414-2.696.012-.268-3.113.318-3.113.318Z"/>
  <path fill="#82807F" d="M90.784 132.885s.009.763.038.778c.028.013 3.193.275 3.113-.318-.064-.472-.307-1.041-.307-1.041l-2.844.581Z"/>
  <path fill="#2D3132" d="M79.179 87.146s-2.94 12.986-3.612 16.942c-.572 3.366-1.028 6.872-.753 9.303.339 3.008 4.594 18.604 4.416 19.485-.178.882 4.452.141 4.452.141s-3.236-17.395-2.59-20.632c.48-2.398 4.674-18.328 5.317-17.51.643.817 1.44 15.033 1.915 17.393.477 2.359 1.938 21.006 1.938 21.006s3.268.482 4.141-.257c0 0 .397-15.922.094-20.345-.116-1.687 1.973-20.216-.706-27.676-1.415-3.944-14.612 2.15-14.612 2.15Z"/>
  <path fill="#DDCAC3" d="M66.38 75.341c2.095-.295 8.69 2.63 9.288 2.409.413-.151 1.38-3.306 2.07-5.694.41-1.411.722-2.556.764-2.651l.002-.005c-.007.062-.114 1.143.022 2.561.008.092.018.185.029.28l.008.075c.061.508.156 1.05.297 1.598.209.809.309 1.874.346 2.998v.005c0 .009 0 .017.002.026l.002.078.001.032c.06 2.045-.083 4.248-.14 5.422-.092 1.818.505 2.636.522 2.658l.631-.088.456-.064.006-.002.609-.085 2.39-.337.866-.122.205-.029 1.515-.212 4.272-.601.469-.067.193-.027 1.61-.227.728-.102h.003s.62-4.391.666-6.764c.042-2.18 1.208-6.606 1.398-7.314a.279.279 0 0 1 .008-.034l.009-.03c.001-.006.003-.01.003-.016 0-.001 0-.003.002-.003l.001-.005.002-.007s3.487 3.667 4.164 5.267c.207.486.836 1.806 1.64 3.414.55-1.05.893-1.778.893-1.962 0-.021 0-.045-.002-.07-.051-1.582-1.707-7.998-3.015-12.188-1.014-2.042-1.89-3.694-2.17-3.895-.426-.306-2.216-1.073-3.777-1.693l-.152-.06-.43-.168-.207-.08c-.037-.013-.074-.027-.11-.042l-.09-.034c-.78-.297-1.374-.505-1.496-.511a.886.886 0 0 0-.097 0c-.05.001-.119.003-.197.008-.965.056-3.846.326-4.774.415l-.289.027h-.001l-1.107.506-.06.029c-.403.185-.868.43-1.36.7-.964.528-2.029 1.146-2.911 1.567-.866.413-2.052.987-2.153 1.067L73.546 73.96l-7.611-1.393.444 2.775Z"/>
  <path fill="#495055" d="M79.593 85.132s-.32.385-.414 2.014c0 0 13.215-1.544 14.612-2.152 0 0 .054-1.795-.241-1.828-.326-.034-13.957 1.966-13.957 1.966Z"/>
  <path fill="#E7A585" d="M90.864 56.52c-.04 2.075-4.057 3.211-4.057 3.211s-1.68-2.108-1.279-2.31c.158-.08.222-.394.241-.747a7.068 7.068 0 0 0-.024-.941c-.012-.148-.023-.241-.023-.241s.573-.607 1.303-1.328c1.275-1.263 3.028-2.881 3.032-2.238a.596.596 0 0 1-.016.123c-.305 1.447.823 4.47.823 4.47Z"/>
  <path fill="#353A3D" d="M90.53 83.486s.288 1.82.314 2.296l.61-.122s-.167-1.926-.268-2.249l-.656.075ZM80.696 84.92s-.233 1.655-.238 2.28l.647-.085s.132-2.067.207-2.282l-.616.086Z"/>
  <path fill="#A4775F" d="M89.317 53.475c-.009.012-.179.269-.47.634-.616.776-1.775 2.052-3.078 2.563a7.068 7.068 0 0 0-.024-.94 2.12 2.12 0 0 1-.399-.048c.358-.625.874-1.281.874-1.281l.806-.241 2.29-.687Z"/>
  <path fill="#E7A585" d="M90.087 51.953c-.348.756-.677 1.305-.77 1.522-.061.141-.228.372-.468.634-.662.713-1.892 1.654-3.102 1.622a2.11 2.11 0 0 1-.399-.047c-.488-.107-1.065-.335-1.382-.957-2.506-4.91-.693-8.926-.693-8.926s6.85-1.94 7.922.126c.753 1.449-.292 4.25-1.108 6.026Z"/>
  <path fill="#434343" d="M83.273 45.801s-.636-.035-.794-1.243c-.156-1.192.16-1.523.16-1.523s2.828-1.186 3.843-1.339c1.016-.154 3.512-.302 4.097.369 0 0 1.422-.332 1.81 2.033.615 3.75-2.095 7.39-2.095 7.39s.024-2.45-.516-2.773c-.54-.325-1.006.446-1.006.446l-1.104.199s1.676-3.625-.335-3.759c-2.008-.134-2.908.411-4.06.2Z"/>
  <path fill="#E7A585" d="M88.804 48.185c.105-1.079 2.055-1.492 1.924-.36-.13 1.13-1.09 2.218-1.534 2.179-.444-.038-.47-.997-.39-1.82Z"/>
  <path fill="#3865A7" d="m102.335 75.711-.001-.07c-.038-1.579-.813-7.898-2.121-12.088-.635-2.035-.78-3.456-1.027-3.633-.426-.306-4.211-1.427-5.816-2.057l-.153-.06-.429-.168c-.07-.027-.14-.052-.207-.08-.037-.013-.075-.027-.11-.042l-.09-.034-.009.009a26.37 26.37 0 0 0-1.773 2.267c-1.657 2.361-3.819 6.185-3.488 9.714.105 1.133.237 2.76.458 4.586l.06.472c.052.42.111.85.176 1.285.039.26.078.523.12.788.44 2.736 1.816 4.603 3.037 6.835.01.019.02.037.033.056l.017.032c.025.048.052.095.078.143l.125.236.071.136c.235.448.464.909.686 1.37.144.298.285.597.422.896.014.03.03.06.043.093l.514 1.196.336.781c.08.184.158.369.234.549.068.156.132.31.195.455l.345.805c.062.148.105.248.118.282a87.619 87.619 0 0 1 .949 2.482l4.228-2.336c.802-.402.383-2.568.081-3.414-.25-.703-.604-1.457-1-2.237a48.64 48.64 0 0 0-.508-.966c1.323-2.314 2.662-4.7 3.512-6.322.551-1.048.894-1.777.894-1.96Zm-6.72-6.622c.001-.005.003-.01.003-.016a.279.279 0 0 1 .005-.018l.009-.03.003-.016c0-.002 0-.004.002-.004l.001-.005s2.057 3.22 1.902 6.013c-.023.435-.456 1.536-1.086 2.944l-.001.003a98.906 98.906 0 0 1-.755 1.648l-.03-.073c-.394-.962-.65-1.863-.65-2.65.001 0 .174-6.133.597-7.796ZM63.57 71.049l9.572 2.087 4.563-11.946c.1-.08 1.41-.784 2.275-1.197.9-.43 2.043-.96 3.056-1.429.483-.224.938-.433 1.323-.61l.032.026s-.565 1.884-1.296 6.585v.002l-.075.483a17.947 17.947 0 0 0-.058.389 9.674 9.674 0 0 0-.039.267l-.082.567c-.326 2.287-.784 6.182-1.224 10.114v.002c-.348 3.098-1.138 6.28-1.391 8.653v.005c-.05.465-.168 1.085-.33 1.783l-.055.241c-.708 2.995-2.084 7.236-2.084 7.236l-.4-.37-1.186-1.096a.963.963 0 0 1-.267-.993c.659-2.125 2.893-9.643 3.304-14.929v-.005c.129-1.661-.356-3.226-.638-4.709l-.014.04a133.71 133.71 0 0 1-.758 2.062c-.706 1.863-1.427 3.589-1.729 3.7-.669.245-13.273-3.204-13.361-3.7l.862-3.258Z"/>
  <path fill="#4D6C9E" d="m91.27 62.633-1.953 1.102.835.853L87.929 76.6c-.453-2.816-.66-5.49-.813-7.13-.51-5.457 4.93-11.614 5.268-11.99.262.1.543.208.835.324l-1.95 4.828ZM84.422 57.926s-.73 2.386-1.582 8.343c-.325 2.288-.784 6.183-1.223 10.115l-.455-11.251.932-1.01-.828-1.034 1.77-4.525c.483-.224.938-.433 1.323-.61l.063-.028Z"/>
  <path fill="#F3E1D8" d="m92.482 57.503-1.62-.985s-.046.89-4.057 3.212l1.139 3.212 4.538-5.44Z"/>
  <path fill="#F3E1D8" d="M85.74 56.966s.063.96 1.067 2.764l-2.222 2.9-.163-4.706 1.318-.958Z"/>
  <path fill="#FE5F5F" d="M86.813 59.731s.43 1.726.274 2.209c0 0-.946.344-1.628-.087.001 0 .483-1.208 1.353-2.122Z"/>
  <path fill="#AD9F99" d="M84.585 84.615c-.241-1.218-.012-4.864-.002-5.019l.207.014c-.002.037-.237 3.775-.002 4.966l-.203.04Z"/>
  <path fill="#68737A" d="M86.273 84.055s-1.945.232-2.588.392l.085 2.183 2.547-.272-.044-2.303Z"/>
  <path fill="#FE5F5F" d="M85.847 61.698s-2.168 5.483-1.816 11.62c.367 6.363.97 8.67.97 8.67l1.336 1.678.59-2.064s-1.795-8.112-.636-16.006c.21-1.43.521-4.14.521-4.14l-.965.242Z"/>
  <path fill="#E7A585" d="M92.364 87.591s-.465.933-.932 1.087c-.465.155-1.143.912-1.143.912l3.276 1.728s.872-1.709.911-2.796c.04-1.085-2.112-.93-2.112-.93Z"/>
  <path fill="#DDCAC3" d="m92.052 87.68-.217.436s2.081 1.524 2.641 1.62l.192-.582-2.616-1.475Z"/>
  <path fill="#597EB8" d="M91.835 87.698s1.559 1.291 2.874 1.887l4.42-7.96-2.29-4.433s-4.9 9.73-5.004 10.506Z"/>
  <path fill="#2F4261" d="M78.633 69.422c-.073 1.472-.061 2.78-.061 2.78v.002l-.006.112-.008-.075c-.236.656-.496 1.368-.759 2.062a22.383 22.383 0 0 1-.059-2.247c.105-4.13 1.403-6.293 1.403-6.293-.3.72-.443 2.264-.51 3.659ZM98.438 84.962l-3.54 4.278 3.033-5.245c.175.325.344.65.507.967Z"/>
  <path fill="#313555" d="M72.74 79.598h-8.17c-.56 0-1.046-.384-1.179-.93L59.841 64a1.214 1.214 0 0 1 1.18-1.5h8.17c.56 0 1.046.384 1.179.93l3.55 14.668c.184.764-.394 1.5-1.18 1.5Z"/>
  <path fill="#E7A585" d="M62.747 75.52c.4-.37 1.17-.586 1.83-1.028.66-.442.109-.897.109-.897.679-.233.606-.543.52-.754-.118-.285-.86-.204-.86-.204s.666-.148.939-.268c.273-.12.18-.598-.24-.75-.42-.15-2.134.272-2.134.272s.28-.137 1.125-.562c.845-.424 1.03-.81.533-.995-.346-.13-1.027.14-2.333 1.019-.984.662-.904.747-.904.747s.938 3.863 1.415 3.42Z"/>
  <path fill="#FE5F5F" d="M97.978 135.19s-1.946 2.738-1.68 3.171c.267.433 2.315.496 3.56 0 1.247-.496 1.276-3.705 1.84-5.084.235-.577-.27-2.281-.979-2.405-.711-.124-1.483.24-1.483.24s.738 1.943-1.258 4.078Z"/>
  <path fill="#E7A585" d="M99.224 131.091s-.41 1.166-.56 2.28c-.124.924-1.386 2.884-1.327 3.132.06.248 1.661.472 2.314-.167.654-.638 1.073-2.498 1.217-3.611.134-1.036.302-1.547.302-1.547s-1.324-.77-1.946-.087Z"/>
  <path fill="#FE5F5F" d="M114.923 135.234s-1.877 2.692-1.61 3.127c.266.433 2.314.496 3.559 0 1.246-.496 1.276-3.704 1.84-5.084.235-.577-.27-2.281-.979-2.405-.71-.124-1.543.265-1.543.265s.728 1.964-1.267 4.097Z"/>
  <path fill="#E7A585" d="M116.192 131.139s-.147 1.27-.385 2.169c-.237.898-1.513 2.945-1.454 3.193.06.248 1.661.472 2.314-.166.654-.639 1.158-2.49 1.217-3.611.059-1.121-.148-1.852-.148-1.852s-.921-.414-1.544.267Z"/>
  <path fill="#E7A585" d="M106.815 86.565s-1.671 8.12-2.055 10.163c-.383 2.043-1.457 11.944-1.573 13.627-.115 1.683-1.742 8.026-1.666 8.627.076.601-2.414 12.678-2.414 12.678s.85.715 1.747.065c.462-.335 5.465-11.306 5.465-14.312 0-4.155 2.942-9.58 3.321-10.509 3.525-8.636 2.832-11.277 3.291-11.837.46-.561.501.346.769 1.59.268 1.241.843 11.983 1.189 13.347.346 1.362.077 5.972.27 8.297.192 2.325 1.033 12.839 1.033 12.839s.654 1.069 1.568.028c.197-.225 1.58-11.714 1.619-14.479.039-2.765.079-6.58.152-7.776.711-11.46 2.459-13.097-.293-21.208-5.153-15.187-12.423-1.14-12.423-1.14Z"/>
  <path fill="#FE5F5F" d="M118.033 84.296s4.76 6.959 2.71 21.76c0 0-11.288 1.604-17.337-1.855 0 0 2.501-15.261 3.407-17.636.908-2.374 11.22-2.27 11.22-2.27ZM101.75 133.036v2.867h-.355v-2.215l.355-.652ZM118.766 133.036v2.867h-.356v-2.215l.356-.652Z"/>
  <path fill="#E7A585" d="M112.39 53.442s-3.188 3.213-2.102 7.353c1.086 4.14 2.83 4.161 4.752 2.381 1.923-1.78 3.054-3.654 3.309-5.734.254-2.081-3.047-6.867-5.959-4Z"/>
  <path fill="#E7A585" d="M111.767 67.246s.472-1.082.804-2.302c.058-.215.112-.434.158-.652.163-.766.229-1.522.055-2.04-.508-1.503 3.188-.462 3.188-.462s-.716 3.976 0 5.318c.716 1.34-4.205.138-4.205.138Z"/>
  <path fill="#EBD9D2" d="M121.133 69.14c-.582-1.162-1.016-1.537-2.141-1.892-.63-.2-3.44-.931-3.44-.931l-3.376-.124s-2.323.387-4.123 1.012c-1.802.625-4.162 4.04-4.162 4.04s3.256 7.655 3.88 9.85c.623 2.197.209 5.596.209 5.596 3.904 2.126 10.163-.207 10.163-.207-.475-1.716-.493-3.72-.244-5.142.029-.168.063-.328.098-.477l.134-.552c.002-.01.006-.02.007-.03 2.482.256 4.81.36 4.871-.14.274-2.246-1.075-9.405-1.876-11.003Zm-1.721 8.727c-.1-.015-.312-.017-.537-.036.274-.77.582-1.452.582-1.452.178.49.846 1.62-.045 1.488Z"/>
  <path fill="#D28853" d="M113.43 55.753s1.524 2.776 2.472 3.77c.947.993.837 1.783.837 1.783s3.69-4.559 1.058-7.31c-2.633-2.752-6.028-1.643-7.021.762-.992 2.405-.629 5.342-.629 5.342s.027-2.82 3.283-4.347Z"/>
  <path fill="#D28853" d="M114.436 52.849s-.368-2.032 2.813-2.838c3.182-.809 4.612 2.862 4.22 5.1-.392 2.239-3.112 7.917-1.637 8.656 1.476.739 2.051-.854 2.051-.854s-.462 2.792-2.513 2.147c-2.051-.646-1.775-5.186-1.466-6.993.311-1.81-3.468-5.218-3.468-5.218Z"/>
  <path fill="#A4775F" d="M115.461 62.774c-.012.028-.816 1.882-2.889 2.17.057-.215.112-.434.158-.652 0 0 1.136.23 2.731-1.518Z"/>
  <path fill="#CFBDB7" d="M119.413 76.404s-.153.322-.569 1.584c-.424-3.549-.202-5.395-.202-5.395.046 1.897.771 3.811.771 3.811Z"/>
  <path fill="#EBD9D2" d="M114.932 52.423s2.258.434 3.385 2.276c0 0-.23-1.668-1.353-2.149-1.125-.48-2.032-.127-2.032-.127Z"/>
  <path fill="#CFBDB7" d="m118.13 80.313-.134.552c-.037.15-.07.309-.098.477-1.398-.76-2.403-1.357-2.403-1.357.375.085 2.635.328 2.635.328Z"/>
  <path fill="#E7A585" d="m115.741 66.366-3.974 3.243.409-3.416s2.318-.501 3.565.173Z"/>
  <path fill="#D5C4BD" d="m112.916 69.058-1.149.55 3.903-3.872-2.754 3.322Z"/>
  <path fill="#7099D8" d="M118.364 80.032c-.546 2.27 1.476 7.377 1.476 7.377l-4.011 1.256a1.028 1.028 0 0 1-1.312-.766c-.537-2.499-1.796-8.651-1.946-12.07-.191-4.364 2.981-9.512 2.981-9.512 5.64.968 4.095 9.512 4.095 9.512s-.206.538-.479 1.379c-.069.21-.142.442-.217.688-.194.63-.401 1.364-.587 2.136ZM111.778 66.38l.069-.187s-2.888.44-4.357 1.173c-1.468.734-4.279 4.527-4.279 4.527l3.675 4.858c.005 3.733-.601 10.371-.601 10.371l1.682.97a.684.684 0 0 0 1.026-.58c.048-2.525.162-8.519.221-11.424.076-3.733 2.738-9.773 2.738-9.773l-.174.064Z"/>
  <path fill="#E7A585" d="M106.54 83.885s2.772.108 3.203 0c.431-.109 3.307-1.357 3.48-2.59.173-1.234-6.683 1.105-6.683 1.105v1.485Z"/>
  <path fill="#B5A5A0" d="m115.138 80.033-11.247-1.319 5.082 4.138 6.165-2.82Z"/>
  <path fill="#EBD9D2" d="m108.973 82.852 6.166-2.103v-.716l-6.375 2.046.209.773Z"/>
  <path fill="#E7A585" d="M111.872 77.964s-.929 0-1.45-.105c-.404-.082-1.405.03-1.661.258-.256.226-1.067 1.805-1.222 1.9-.153.097.078.32.348.208 0 0 .248.69.859.431.61-.258 1.026-.824 1.345-.922.321-.1 2.184-.602 2.184-.602s.076-1.336-.403-1.168Z"/>
  <path fill="#F8E5DD" d="m112.389 65.563-2.142 3.393-1.033.653 2.409-3.38.766-.666Z"/>
  <path fill="#D5C4BD" d="m110.247 68.956 1.52.653.409-3.416.212-.63-2.141 3.393Z"/>
  <path fill="#F09E4A" d="M106.877 82.299s-.115 1.433 0 1.734c0 0-6.936-.693-7.582-1.665-.647-.971-.624-2.15-.624-2.15l8.206 2.08Z"/>
  <path fill="#EBD9D2" d="m108.973 82.852-3.28-12.207-12.472-1.319 3.419 11.238 12.333 2.288Z"/>
  <path fill="#F8E5DD" d="m115.67 65.736-2.754 3.322 1.507 1.345 1.627-3.978-.38-.69Z"/>
  <path fill="#3865A7" d="m119.26 76.926-.092.282c-.069.21-.142.442-.217.688-.533.168-5.139-.172-5.139-.172s3.855-.905 5.448-.798Z"/>
  <path fill="#7099D8" d="M118.995 77.806a44.989 44.989 0 0 0-2.952-.14c-1.547-.006-4.196.167-4.196.167l.316 1.656s4.689.763 7.251.943c0 0 3.38.389 3.631-.116.251-.504-.083-3.747-.633-6.666-.549-2.922-1.114-4.604-1.786-5.506-.672-.901-4.223-1.605-4.223-1.605l3.011 9.869s.433.88.409 1.26c-.006.116-.086.17-.195.19l-.471-.038-.162-.014Z"/>
</svg>
